<svg width="36" height="36" fill="none" xmlns="http://www.w3.org/2000/svg"><path d="M14.32 24.134H9.77l5.904-14.428h4.205l5.926 14.428h-4.738l-1.022-2.685h-4.673l-1.051 2.685zm3.385-9.388l-1.066 3.398h2.11l-1.044-3.398z" fill="#fff"/><path d="M21.636 4.356L20.851.972a.5.5 0 00-.482-.389h-4.666a.508.508 0 00-.49.382l-.784 3.384a14.147 14.147 0 00-3.514 1.454L7.97 3.967a.49.49 0 00-.612.072L4.061 7.337a.5.5 0 00-.072.619l1.836 2.945a14.147 14.147 0 00-1.455 3.513L.986 15.2a.5.5 0 00-.388.483v4.665c0 .23.158.432.388.483l3.384.784a14.147 14.147 0 001.455 3.514l-1.836 2.945a.49.49 0 00.072.612l3.297 3.297a.5.5 0 00.62.072l2.944-1.836c.008.008.987-2.296.987-2.296A11.589 11.589 0 016.307 18c0-6.4 5.191-11.592 11.592-11.592.95 0 1.88.115 2.765.331-.007.022.98-2.383.972-2.383zm-6.192 25.02l-.994 2.376.77 3.326a.5.5 0 00.483.39h4.666a.51.51 0 00.49-.39l.784-3.384a14.147 14.147 0 003.514-1.454l2.945 1.836a.49.49 0 00.612-.072l3.297-3.298a.5.5 0 00.072-.619l-1.836-2.945a14.147 14.147 0 001.455-3.513l3.384-.785a.5.5 0 00.388-.482v-4.673a.493.493 0 00-.388-.483l-3.384-.784a14.147 14.147 0 00-1.455-3.514l1.836-2.945a.49.49 0 00-.072-.612l-3.297-3.297a.5.5 0 00-.62-.072L25.15 5.818c-.015-.008-1.073 2.404-1.073 2.404a11.571 11.571 0 015.4 9.8c0 6.4-5.191 11.592-11.592 11.592" fill="#fff"/><path d="M19.886 9.713h-2.11a11.32 11.32 0 011.311 5.299c0 1.022-.137 2.009-.389 2.952l.058.194h-.115a11.392 11.392 0 01-1.563 3.298h2.974l1.022 2.686h4.738l-5.926-14.43z" fill="#fff"/></svg>