<svg xmlns="http://www.w3.org/2000/svg" viewBox="0 0 100 100"><defs><style>.a{fill:#36c5f0;}.a,.b,.c,.d{fill-rule:evenodd;}.b{fill:#2eb67d;}.c{fill:#ecb22e;}.d{fill:#e01e5a;}</style></defs><title>Slack</title><path class="a" d="M39.2,9.5a8.1,8.1,0,0,0,0,16.2h8.1V17.6a8.1,8.1,0,0,0-8.1-8.1h0"/><path class="a" d="M39.2,31.1H17.7a8.1,8.1,0,1,0,0,16.2H39.2a8.1,8.1,0,0,0,0-16.2Z"/><path class="b" d="M90.4,39.2a8.1,8.1,0,0,0-16.2,0v8.1h8.1A8.1,8.1,0,0,0,90.4,39.2Z"/><path class="b" d="M68.8,39.2V17.6a8,8,0,0,0-8-8.1,8.1,8.1,0,0,0-8.1,8.1V39.2a8.1,8.1,0,0,0,8.1,8.1A8,8,0,0,0,68.8,39.2Z"/><path class="c" d="M60.8,90.5a8.1,8.1,0,0,0,0-16.2H52.7v8.1A8.1,8.1,0,0,0,60.8,90.5Z"/><path class="c" d="M60.8,68.9H82.3a8.1,8.1,0,1,0,0-16.2H60.8a8.1,8.1,0,1,0,0,16.2Z"/><path class="d" d="M9.6,60.8a8.1,8.1,0,0,0,16.2,0V52.7H17.7A8.1,8.1,0,0,0,9.6,60.8Z"/><path class="d" d="M31.2,60.8V82.4a8,8,0,0,0,8,8.1,8.1,8.1,0,0,0,8.1-8.1V60.8a8.1,8.1,0,0,0-8.1-8.1,8,8,0,0,0-8,8.1h0"/></svg>